<svg xmlns="http://www.w3.org/2000/svg" viewBox="0 0 400 120" width="100%" height="100%">
  <g transform="translate(10, 20) scale(0.66)">
    <path d="M25 30 C25 24.477 29.477 20 35 20 L85 20 C90.523 20 95 24.477 95 30 L95 45 C90 45 87 49 87 55 C87 61 90 65 95 65 L95 90 C95 95.523 90.523 100 85 100 L35 100 C29.477 100 25 95.523 25 90 L25 75 C30 75 33 71 33 65 C33 59 30 55 25 55 L25 30 Z" fill="#111827" />
    <path d="M50 45 L75 45 L75 55 L60 55 L60 75 L40 75 L40 45 Z" fill="#F4F4F0" />
    <circle cx="45" cy="40" r="5" fill="#F4F4F0" />
  </g>

  <style>
    @import url('https://fonts.googleapis.com/css2?family=Outfit:wght@800&amp;display=swap');
    .text-logo { font-family: 'Outfit', sans-serif; font-weight: 800; font-size: 52px; fill: #111827; letter-spacing: -1.5px; }
    .text-accent { fill: #059669; } /* Crisp Leaf Green */
  </style>
  <text x="95" y="75" class="text-logo">Gather<tspan class="text-accent">Tix</tspan></text>
</svg>
